{"title":"Bhaag Milkha Bhaag 2013 Hindi DVDRip XviD-DDR","uid":9028084,"size":760641536,"categoryP":"video","categoryS":"movies","magnet":"?xt=urn:btih:0319c0ef18f472c6e69f07e69051c2e0a9165fc6&amp;dn=Bhaag+Milkha+Bhaag+2013+Hindi+DVDRip+XviD-DDR&amp;tr=udp%3A%2F%2Ftracker.openbittorrent.com%3A80&amp;tr=udp%3A%2F%2Fopen.demonii.com%3A1337&amp;tr=udp%3A%2F%2Ftracker.coppersurfer.tk%3A6969&amp;tr=udp%3A%2F%2Fexodus.desync.com%3A6969","seeders":1,"leechers":0,"uploader":"HeroMaster","files":-1,"time":1381403720,"description":":::::: Digital Desi Dhoom PRESENTS ::::::\n\n &lt;a href=&quot;\nhttp://i.imgur.com/tUgzm7v.png&quot; rel=&quot;nofollow&quot; target=&quot;_NEW&quot;&gt;\nhttp://i.imgur.com/tUgzm7v.png&lt;/a&gt;\n\n\n:::: Bhaag Milkha Bhaag 2013 Hindi DVDRip XviD-DDR ::::\n\n\n::Information::\n\n\nMovie Name : Bhaag Milkha Bhaag\nStarring : Farhan Akhtar, Sonam Kapoor, Pavan Malhotra\nDirected : Rakeysh Omprakash Mehra\nProducer : Rajiv Tandon\nIMDB Ratings: 8.1/10 from 13,459 users \nMovie Release Date : 12 July 2013\nRipper : AnMoL\nSource : DVD9 My Own Collection\nAudio : Hindi\nSubtitle : None\n\n\n::Technical Info::\n\n\nFormat : AVI\nFormat/Info : Audio Video Interleave\nFile size : 725 MiB\nDuration : 3h 6mn\nOverall bit rate : 544 Kbps\n\nVideo\nCodec ID : XVID\nCodec ID/Hint : XviD\nDuration : 3h 6mn\nBit rate : 455 Kbps\nWidth : 640 pixels\nHeight : 272 pixels\nDisplay aspect ratio : 2.35:1\nFrame rate : 23.976 fps\nColor space : YUV\nChroma subsampling : 4:2:0\nBit depth : 8 bits\nScan type : Progressive\nCompression mode : Lossy\nBits/(Pixel*Frame) : 0.109\nStream size : 606 MiB (84%)\n\nAudio\nID : 1\nFormat : MPEG Audio\nFormat version : Version 1\nFormat profile : Layer 3\nMode : Joint stereo\nMode extension : MS Stereo\nCodec ID : 55\nCodec ID/Hint : MP3\nDuration : 3h 6mn\nBit rate mode : Constant\nBit rate : 80.0 Kbps\nChannel(s) : 2 channels\nSampling rate : 32.0 KHz\nCompression mode : Lossy\nStream size : 107 MiB (15%)\n\n\n::IMDB::\n\n &lt;a href=&quot;\nhttp://www.imdb.com/title/tt2356180/&quot; rel=&quot;nofollow&quot; target=&quot;_NEW&quot;&gt;\nhttp://www.imdb.com/title/tt2356180/&lt;/a&gt;\n\n\n::Greetz and Respect::\n\n\nALL CREDITS Goes to AnMol for Encoding, SAM and Team DDR for Supporting \nand extremist07 for Distribution.\n\n\n::Poster::\n\n &lt;a href=&quot;\nhttp://i.imgur.com/CRTZHUD.jpg&quot; rel=&quot;nofollow&quot; target=&quot;_NEW&quot;&gt;\nhttp://i.imgur.com/CRTZHUD.jpg&lt;/a&gt;\n\n\n::Screenshots::\n\n &lt;a href=&quot;\nhttp://i.imgur.com/KeVJfI8.png&quot; rel=&quot;nofollow&quot; target=&quot;_NEW&quot;&gt;\nhttp://i.imgur.com/KeVJfI8.png&lt;/a&gt;\n\n &lt;a href=&quot;\nhttp://i.imgur.com/k6knmjW.png&quot; rel=&quot;nofollow&quot; target=&quot;_NEW&quot;&gt;\nhttp://i.imgur.com/k6knmjW.png&lt;/a&gt;\n\n &lt;a href=&quot;\nhttp://i.imgur.com/qe4nekv.png&quot; rel=&quot;nofollow&quot; target=&quot;_NEW&quot;&gt;\nhttp://i.imgur.com/qe4nekv.png&lt;/a&gt;\n\n\nSEED AND ENJOY!","torrent":{"xt":"urn:btih:0319c0ef18f472c6e69f07e69051c2e0a9165fc6","amp;dn":"Bhaag+Milkha+Bhaag+2013+Hindi+DVDRip+XviD-DDR","amp;tr":["udp%3A%2F%2Ftracker.openbittorrent.com%3A80","udp%3A%2F%2Fopen.demonii.com%3A1337","udp%3A%2F%2Ftracker.coppersurfer.tk%3A6969","udp%3A%2F%2Fexodus.desync.com%3A6969"],"infoHash":"0319c0ef18f472c6e69f07e69051c2e0a9165fc6","infoHashBuffer":{"type":"Buffer","data":[3,25,192,239,24,244,114,198,230,159,7,230,144,81,194,224,169,22,95,198]},"announce":[],"urlList":[]}}